<svg width="96" height="96" viewBox="0 0 480 480" fill="none" xmlns="http://www.w3.org/2000/svg">
<g filter="url(#filter0_d_8_6)">
<path d="M151.4 104H177.8L217.8 204.8L258.2 104H285L235.4 225.2L289.8 353.6L392.6 102H423L302.6 386H277.8L218.2 245.6L158.2 386H133.8L13.8 102H43.8L147 353.6L201 225.2L151.4 104Z" fill="#8A2BE2"/>
</g>
<mask id="path-2-outside-1_8_6" maskUnits="userSpaceOnUse" x="239" y="99" width="220" height="291" fill="black">
<rect fill="white" x="239" y="99" width="220" height="291"/>
<path d="M429.6 155.2C425.6 150.667 420.933 146.667 415.6 143.2C410.267 139.467 404.267 136.267 397.6 133.6C390.933 130.933 383.733 128.8 376 127.2C368.533 125.6 360.533 124.8 352 124.8C327.2 124.8 308.933 129.6 297.2 139.2C285.733 148.533 280 161.333 280 177.6C280 188.8 282.667 197.6 288 204C293.6 210.4 302.267 215.6 314 219.6C325.733 223.6 340.667 227.733 358.8 232C379.067 236.267 396.533 241.333 411.2 247.2C425.867 253.067 437.2 261.067 445.2 271.2C453.2 281.067 457.2 294.533 457.2 311.6C457.2 324.667 454.667 336 449.6 345.6C444.533 355.2 437.467 363.2 428.4 369.6C419.333 376 408.533 380.8 396 384C383.467 386.933 369.733 388.4 354.8 388.4C340.133 388.4 326 386.933 312.4 384C299.067 380.8 286.4 376.267 274.4 370.4C262.4 364.267 251.2 356.533 240.8 347.2L254.8 324.4C259.867 329.733 265.867 334.8 272.8 339.6C280 344.133 287.867 348.267 296.4 352C305.2 355.733 314.533 358.667 324.4 360.8C334.533 362.667 344.933 363.6 355.6 363.6C378.267 363.6 395.867 359.467 408.4 351.2C421.2 342.933 427.6 330.667 427.6 314.4C427.6 302.667 424.4 293.333 418 286.4C411.6 279.2 402 273.333 389.2 268.8C376.4 264.267 360.667 259.867 342 255.6C322.267 251.067 305.6 246 292 240.4C278.4 234.8 268.133 227.467 261.2 218.4C254.533 209.067 251.2 196.8 251.2 181.6C251.2 164 255.467 149.2 264 137.2C272.8 124.933 284.8 115.733 300 109.6C315.2 103.2 332.667 100 352.4 100C364.933 100 376.533 101.333 387.2 104C398.133 106.4 408.133 110 417.2 114.8C426.533 119.6 435.2 125.6 443.2 132.8L429.6 155.2Z"/>
</mask>
<path d="M429.6 155.2C425.6 150.667 420.933 146.667 415.6 143.2C410.267 139.467 404.267 136.267 397.6 133.6C390.933 130.933 383.733 128.8 376 127.2C368.533 125.6 360.533 124.8 352 124.8C327.2 124.8 308.933 129.6 297.2 139.2C285.733 148.533 280 161.333 280 177.6C280 188.8 282.667 197.6 288 204C293.6 210.4 302.267 215.6 314 219.6C325.733 223.6 340.667 227.733 358.8 232C379.067 236.267 396.533 241.333 411.2 247.2C425.867 253.067 437.2 261.067 445.2 271.2C453.2 281.067 457.2 294.533 457.2 311.6C457.2 324.667 454.667 336 449.6 345.6C444.533 355.2 437.467 363.2 428.4 369.6C419.333 376 408.533 380.8 396 384C383.467 386.933 369.733 388.4 354.8 388.4C340.133 388.4 326 386.933 312.4 384C299.067 380.8 286.4 376.267 274.4 370.4C262.4 364.267 251.2 356.533 240.8 347.2L254.8 324.4C259.867 329.733 265.867 334.8 272.8 339.6C280 344.133 287.867 348.267 296.4 352C305.2 355.733 314.533 358.667 324.4 360.8C334.533 362.667 344.933 363.6 355.6 363.6C378.267 363.6 395.867 359.467 408.4 351.2C421.2 342.933 427.6 330.667 427.6 314.4C427.6 302.667 424.4 293.333 418 286.4C411.6 279.2 402 273.333 389.2 268.8C376.4 264.267 360.667 259.867 342 255.6C322.267 251.067 305.6 246 292 240.4C278.4 234.8 268.133 227.467 261.2 218.4C254.533 209.067 251.2 196.8 251.2 181.6C251.2 164 255.467 149.2 264 137.2C272.8 124.933 284.8 115.733 300 109.6C315.2 103.2 332.667 100 352.4 100C364.933 100 376.533 101.333 387.2 104C398.133 106.4 408.133 110 417.2 114.8C426.533 119.6 435.2 125.6 443.2 132.8L429.6 155.2Z" fill="#8A2BE2"/>
<path d="M429.6 155.2L428.85 155.862L429.749 156.881L430.455 155.719L429.6 155.2ZM415.6 143.2L415.027 144.019L415.041 144.029L415.055 144.038L415.6 143.2ZM376 127.2L375.79 128.178L375.797 128.179L376 127.2ZM297.2 139.2L297.831 139.976L297.833 139.974L297.2 139.2ZM288 204L287.232 204.64L287.239 204.649L287.247 204.658L288 204ZM314 219.6L313.677 220.547L313.677 220.547L314 219.6ZM358.8 232L358.571 232.973L358.582 232.976L358.594 232.979L358.8 232ZM411.2 247.2L410.829 248.128L410.829 248.128L411.2 247.2ZM445.2 271.2L444.415 271.82L444.423 271.83L445.2 271.2ZM449.6 345.6L450.484 346.067L450.484 346.067L449.6 345.6ZM428.4 369.6L428.977 370.417L428.977 370.417L428.4 369.6ZM396 384L396.228 384.974L396.238 384.971L396.247 384.969L396 384ZM312.4 384L312.167 384.972L312.178 384.975L312.189 384.978L312.4 384ZM274.4 370.4L273.945 371.29L273.953 371.294L273.961 371.298L274.4 370.4ZM240.8 347.2L239.948 346.677L239.512 347.387L240.132 347.944L240.8 347.2ZM254.8 324.4L255.525 323.711L254.629 322.768L253.948 323.877L254.8 324.4ZM272.8 339.6L272.231 340.422L272.249 340.435L272.267 340.446L272.8 339.6ZM296.4 352L295.999 352.916L296.009 352.921L296.4 352ZM324.4 360.8L324.189 361.777L324.204 361.781L324.219 361.783L324.4 360.8ZM408.4 351.2L407.857 350.36L407.849 350.365L408.4 351.2ZM418 286.4L417.253 287.064L417.259 287.071L417.265 287.078L418 286.4ZM342 255.6L341.776 256.575L341.777 256.575L342 255.6ZM292 240.4L292.381 239.475L292.381 239.475L292 240.4ZM261.2 218.4L260.386 218.981L260.396 218.994L260.406 219.007L261.2 218.4ZM264 137.2L263.187 136.617L263.185 136.62L264 137.2ZM300 109.6L300.374 110.527L300.381 110.525L300.388 110.522L300 109.6ZM387.2 104L386.957 104.97L386.971 104.974L386.986 104.977L387.2 104ZM417.2 114.8L416.732 115.684L416.743 115.689L417.2 114.8ZM443.2 132.8L444.055 133.319L444.485 132.611L443.869 132.057L443.2 132.8ZM430.35 154.538C426.287 149.934 421.55 145.875 416.145 142.362L415.055 144.038C420.316 147.458 424.913 151.4 428.85 155.862L430.35 154.538ZM416.173 142.381C410.771 138.599 404.702 135.364 397.971 132.672L397.229 134.528C403.831 137.169 409.762 140.334 415.027 144.019L416.173 142.381ZM397.971 132.672C391.245 129.981 383.988 127.831 376.203 126.221L375.797 128.179C383.479 129.768 390.622 131.886 397.229 134.528L397.971 132.672ZM376.21 126.222C368.667 124.606 360.596 123.8 352 123.8V125.8C360.471 125.8 368.4 126.594 375.79 128.178L376.21 126.222ZM352 123.8C327.105 123.8 308.561 128.612 296.567 138.426L297.833 139.974C309.305 130.588 327.295 125.8 352 125.8V123.8ZM296.569 138.424C284.843 147.968 279 161.067 279 177.6H281C281 161.6 286.623 149.098 297.831 139.976L296.569 138.424ZM279 177.6C279 188.953 281.704 198.007 287.232 204.64L288.768 203.36C283.629 197.193 281 188.647 281 177.6H279ZM287.247 204.658C293.004 211.237 301.849 216.514 313.677 220.547L314.323 218.653C302.684 214.686 294.196 209.562 288.753 203.341L287.247 204.658ZM313.677 220.547C325.453 224.561 340.42 228.703 358.571 232.973L359.029 231.027C340.913 226.764 326.014 222.639 314.323 218.653L313.677 220.547ZM358.594 232.979C378.821 237.237 396.229 242.289 410.829 248.128L411.571 246.272C396.838 240.378 379.313 235.297 359.006 231.021L358.594 232.979ZM410.829 248.128C425.369 253.945 436.545 261.851 444.415 271.82L445.985 270.58C437.855 260.282 426.364 252.189 411.571 246.272L410.829 248.128ZM444.423 271.83C452.236 281.465 456.2 294.684 456.2 311.6H458.2C458.2 294.383 454.164 280.668 445.977 270.57L444.423 271.83ZM456.2 311.6C456.2 324.537 453.692 335.704 448.716 345.133L450.484 346.067C455.641 336.296 458.2 324.796 458.2 311.6H456.2ZM448.716 345.133C443.724 354.591 436.764 362.472 427.823 368.783L428.977 370.417C438.169 363.928 445.342 355.809 450.484 346.067L448.716 345.133ZM427.823 368.783C418.871 375.102 408.187 379.856 395.753 383.031L396.247 384.969C408.88 381.744 419.795 376.898 428.977 370.417L427.823 368.783ZM395.772 383.026C383.324 385.94 369.669 387.4 354.8 387.4V389.4C369.798 389.4 383.609 387.927 396.228 384.974L395.772 383.026ZM354.8 387.4C340.2 387.4 326.138 385.94 312.611 383.022L312.189 384.978C325.862 387.927 340.066 389.4 354.8 389.4V387.4ZM312.633 383.028C299.369 379.844 286.772 375.335 274.839 369.502L273.961 371.298C286.028 377.198 298.764 381.756 312.167 384.972L312.633 383.028ZM274.855 369.51C262.935 363.417 251.806 355.734 241.468 346.456L240.132 347.944C250.594 357.333 261.865 365.116 273.945 371.29L274.855 369.51ZM241.652 347.723L255.652 324.923L253.948 323.877L239.948 346.677L241.652 347.723ZM254.075 325.089C259.195 330.478 265.249 335.589 272.231 340.422L273.369 338.778C266.484 334.011 260.538 328.988 255.525 323.711L254.075 325.089ZM272.267 340.446C279.513 345.008 287.424 349.165 295.999 352.916L296.801 351.084C288.309 347.369 280.487 343.258 273.333 338.754L272.267 340.446ZM296.009 352.921C304.87 356.68 314.264 359.632 324.189 361.777L324.611 359.823C314.803 357.702 305.53 354.787 296.791 351.079L296.009 352.921ZM324.219 361.783C334.414 363.662 344.875 364.6 355.6 364.6V362.6C344.992 362.6 334.653 361.672 324.581 359.817L324.219 361.783ZM355.6 364.6C378.369 364.6 396.19 360.451 408.951 352.035L407.849 350.365C395.543 358.482 378.164 362.6 355.6 362.6V364.6ZM408.943 352.04C422.05 343.575 428.6 330.979 428.6 314.4H426.6C426.6 330.355 420.35 342.292 407.857 350.36L408.943 352.04ZM428.6 314.4C428.6 302.479 425.344 292.882 418.735 285.722L417.265 287.078C423.456 293.785 426.6 302.854 426.6 314.4H428.6ZM418.747 285.736C412.199 278.368 402.431 272.425 389.534 267.857L388.866 269.743C401.569 274.241 411.001 280.032 417.253 287.064L418.747 285.736ZM389.534 267.857C376.686 263.307 360.913 258.897 342.223 254.625L341.777 256.575C360.42 260.836 376.114 265.226 388.866 269.743L389.534 267.857ZM342.224 254.625C322.526 250.1 305.915 245.048 292.381 239.475L291.619 241.325C305.285 246.952 322.008 252.033 341.776 256.575L342.224 254.625ZM292.381 239.475C278.898 233.924 268.794 226.684 261.994 217.793L260.406 219.007C267.473 228.25 277.902 235.676 291.619 241.325L292.381 239.475ZM262.014 217.819C255.502 208.702 252.2 196.659 252.2 181.6H250.2C250.2 196.941 253.565 209.431 260.386 218.981L262.014 217.819ZM252.2 181.6C252.2 164.166 256.424 149.579 264.815 137.78L263.185 136.62C254.509 148.821 250.2 163.834 250.2 181.6H252.2ZM264.813 137.783C273.493 125.683 285.334 116.596 300.374 110.527L299.626 108.673C284.266 114.871 272.107 124.183 263.187 136.617L264.813 137.783ZM300.388 110.522C315.444 104.182 332.774 101 352.4 101V99C332.559 99 314.956 102.218 299.612 108.678L300.388 110.522ZM352.4 101C364.863 101 376.38 102.326 386.957 104.97L387.443 103.03C376.686 100.341 365.004 99 352.4 99V101ZM386.986 104.977C397.839 107.359 407.752 110.93 416.732 115.684L417.668 113.916C408.514 109.07 398.428 105.441 387.414 103.023L386.986 104.977ZM416.743 115.689C425.998 120.449 434.593 126.399 442.531 133.543L443.869 132.057C435.807 124.801 427.069 118.751 417.657 113.911L416.743 115.689ZM442.345 132.281L428.745 154.681L430.455 155.719L444.055 133.319L442.345 132.281Z" fill="black" mask="url(#path-2-outside-1_8_6)"/>
<defs>
<filter id="filter0_d_8_6" x="9.8" y="102" width="417.2" height="292" filterUnits="userSpaceOnUse" color-interpolation-filters="sRGB">
<feFlood flood-opacity="0" result="BackgroundImageFix"/>
<feColorMatrix in="SourceAlpha" type="matrix" values="0 0 0 0 0 0 0 0 0 0 0 0 0 0 0 0 0 0 127 0" result="hardAlpha"/>
<feOffset dy="4"/>
<feGaussianBlur stdDeviation="2"/>
<feComposite in2="hardAlpha" operator="out"/>
<feColorMatrix type="matrix" values="0 0 0 0 0 0 0 0 0 0 0 0 0 0 0 0 0 0 0.25 0"/>
<feBlend mode="normal" in2="BackgroundImageFix" result="effect1_dropShadow_8_6"/>
<feBlend mode="normal" in="SourceGraphic" in2="effect1_dropShadow_8_6" result="shape"/>
</filter>
</defs>
</svg>
